<?xml version="1.0" encoding="UTF-8" standalone="no"?>
<!-- Generator: Adobe Illustrator 21.0.2, SVG Export Plug-In . SVG Version: 6.00 Build 0)  -->

<svg
   xmlns:osb="http://www.openswatchbook.org/uri/2009/osb"
   xmlns:dc="http://purl.org/dc/elements/1.1/"
   xmlns:cc="http://creativecommons.org/ns#"
   xmlns:rdf="http://www.w3.org/1999/02/22-rdf-syntax-ns#"
   xmlns:svg="http://www.w3.org/2000/svg"
   xmlns="http://www.w3.org/2000/svg"
   xmlns:xlink="http://www.w3.org/1999/xlink"
   xmlns:sodipodi="http://sodipodi.sourceforge.net/DTD/sodipodi-0.dtd"
   xmlns:inkscape="http://www.inkscape.org/namespaces/inkscape"
   version="1.1"
   id="Layer_1"
   x="0px"
   y="0px"
   viewBox="0 0 314 79.999999"
   xml:space="preserve"
   inkscape:version="0.91 r13725"
   sodipodi:docname="logo.svg"
   width="314"
   height="80"><metadata
     id="metadata4254"><rdf:RDF><cc:Work
         rdf:about=""><dc:format>image/svg+xml</dc:format><dc:type
           rdf:resource="http://purl.org/dc/dcmitype/StillImage" /><dc:title></dc:title></cc:Work></rdf:RDF></metadata><defs
     id="defs4252"><linearGradient
       id="linearGradient5776"
       osb:paint="solid"><stop
         style="stop-color:#ffffff;stop-opacity:1;"
         offset="0"
         id="stop5778" /></linearGradient><linearGradient
       inkscape:collect="always"
       xlink:href="#linearGradient5776"
       id="linearGradient6257"
       gradientUnits="userSpaceOnUse"
       gradientTransform="translate(3.1121469,4.1668161)"
       x1="5.0540643"
       y1="39.750511"
       x2="190.83907"
       y2="39.750511" /><linearGradient
       inkscape:collect="always"
       xlink:href="#linearGradient5776"
       id="linearGradient3358"
       gradientUnits="userSpaceOnUse"
       gradientTransform="translate(3.1121469,4.1668161)"
       x1="5.0540643"
       y1="39.750511"
       x2="190.83907"
       y2="39.750511" /><linearGradient
       inkscape:collect="always"
       xlink:href="#linearGradient5776"
       id="linearGradient3360"
       gradientUnits="userSpaceOnUse"
       gradientTransform="translate(3.1121469,4.1668161)"
       x1="5.0540643"
       y1="39.750511"
       x2="190.83907"
       y2="39.750511" /><linearGradient
       inkscape:collect="always"
       xlink:href="#linearGradient5776"
       id="linearGradient3362"
       gradientUnits="userSpaceOnUse"
       gradientTransform="translate(3.1121469,4.1668161)"
       x1="5.0540643"
       y1="39.750511"
       x2="190.83907"
       y2="39.750511" /><linearGradient
       inkscape:collect="always"
       xlink:href="#linearGradient5776"
       id="linearGradient3364"
       gradientUnits="userSpaceOnUse"
       gradientTransform="translate(3.1121469,4.1668161)"
       x1="5.0540643"
       y1="39.750511"
       x2="190.83907"
       y2="39.750511" /><linearGradient
       inkscape:collect="always"
       xlink:href="#linearGradient5776"
       id="linearGradient3366"
       gradientUnits="userSpaceOnUse"
       gradientTransform="translate(3.1121469,4.1668161)"
       x1="5.0540643"
       y1="39.750511"
       x2="190.83907"
       y2="39.750511" /><linearGradient
       inkscape:collect="always"
       xlink:href="#linearGradient5776"
       id="linearGradient3368"
       gradientUnits="userSpaceOnUse"
       gradientTransform="translate(3.1121469,4.1668161)"
       x1="5.0540643"
       y1="39.750511"
       x2="190.83907"
       y2="39.750511" /><linearGradient
       inkscape:collect="always"
       xlink:href="#linearGradient5776"
       id="linearGradient3370"
       gradientUnits="userSpaceOnUse"
       gradientTransform="translate(3.1121469,4.1668161)"
       x1="5.0540643"
       y1="39.750511"
       x2="190.83907"
       y2="39.750511" /><linearGradient
       inkscape:collect="always"
       xlink:href="#linearGradient5776"
       id="linearGradient3372"
       gradientUnits="userSpaceOnUse"
       gradientTransform="translate(3.1121469,4.1668161)"
       x1="5.0540643"
       y1="39.750511"
       x2="190.83907"
       y2="39.750511" /><linearGradient
       inkscape:collect="always"
       xlink:href="#linearGradient5776"
       id="linearGradient3374"
       gradientUnits="userSpaceOnUse"
       gradientTransform="translate(3.1121469,4.1668161)"
       x1="5.0540643"
       y1="39.750511"
       x2="190.83907"
       y2="39.750511" /><linearGradient
       inkscape:collect="always"
       xlink:href="#linearGradient5776"
       id="linearGradient3376"
       gradientUnits="userSpaceOnUse"
       gradientTransform="translate(3.1121469,4.1668161)"
       x1="5.0540643"
       y1="39.750511"
       x2="190.83907"
       y2="39.750511" /><linearGradient
       inkscape:collect="always"
       xlink:href="#linearGradient5776"
       id="linearGradient3378"
       gradientUnits="userSpaceOnUse"
       gradientTransform="translate(3.1121469,4.1668161)"
       x1="5.0540643"
       y1="39.750511"
       x2="190.83907"
       y2="39.750511" /><linearGradient
       inkscape:collect="always"
       xlink:href="#linearGradient5776"
       id="linearGradient3380"
       gradientUnits="userSpaceOnUse"
       gradientTransform="translate(3.1121469,4.1668161)"
       x1="5.0540643"
       y1="39.750511"
       x2="190.83907"
       y2="39.750511" /><linearGradient
       inkscape:collect="always"
       xlink:href="#linearGradient5776"
       id="linearGradient3382"
       gradientUnits="userSpaceOnUse"
       gradientTransform="translate(3.1121469,4.1668161)"
       x1="5.0540643"
       y1="39.750511"
       x2="190.83907"
       y2="39.750511" /><linearGradient
       inkscape:collect="always"
       xlink:href="#linearGradient5776"
       id="linearGradient3384"
       gradientUnits="userSpaceOnUse"
       gradientTransform="translate(3.1121469,4.1668161)"
       x1="5.0540643"
       y1="39.750511"
       x2="190.83907"
       y2="39.750511" /><linearGradient
       inkscape:collect="always"
       xlink:href="#linearGradient5776"
       id="linearGradient3386"
       gradientUnits="userSpaceOnUse"
       gradientTransform="translate(3.1121469,4.1668161)"
       x1="5.0540643"
       y1="39.750511"
       x2="190.83907"
       y2="39.750511" /><linearGradient
       inkscape:collect="always"
       xlink:href="#linearGradient5776"
       id="linearGradient3388"
       gradientUnits="userSpaceOnUse"
       gradientTransform="translate(3.1121469,4.1668161)"
       x1="5.0540643"
       y1="39.750511"
       x2="190.83907"
       y2="39.750511" /><linearGradient
       inkscape:collect="always"
       xlink:href="#linearGradient5776"
       id="linearGradient3390"
       gradientUnits="userSpaceOnUse"
       gradientTransform="translate(3.1121469,4.1668161)"
       x1="5.0540643"
       y1="39.750511"
       x2="190.83907"
       y2="39.750511" /></defs><sodipodi:namedview
     pagecolor="#ffffff"
     bordercolor="#666666"
     borderopacity="1"
     objecttolerance="10"
     gridtolerance="10"
     guidetolerance="10"
     inkscape:pageopacity="0"
     inkscape:pageshadow="2"
     inkscape:window-width="1680"
     inkscape:window-height="1006"
     id="namedview4250"
     showgrid="false"
     inkscape:snap-text-baseline="true"
     inkscape:zoom="2"
     inkscape:cx="-72.198421"
     inkscape:cy="-29.576807"
     inkscape:window-x="0"
     inkscape:window-y="0"
     inkscape:window-maximized="0"
     inkscape:current-layer="Layer_1"
     borderlayer="false"
     fit-margin-top="0"
     fit-margin-left="0"
     fit-margin-right="0"
     fit-margin-bottom="0" /><style
     type="text/css"
     id="style4224">
    .st0{fill:#FFFFFF;}
</style><g
     style="font-style:normal;font-weight:normal;font-size:40px;line-height:125%;font-family:sans-serif;letter-spacing:0px;word-spacing:0px;fill:#000000;fill-opacity:1;stroke:url(#linearGradient6257);stroke-width:1;stroke-linecap:butt;stroke-linejoin:miter;stroke-miterlimit:4;stroke-dasharray:none;stroke-opacity:1"
     id="text4295"
     transform="translate(-9.04004,-0.073242)"><path
       d="m 23.920898,30.10498 0,2.885743 q -1.68457,-0.805664 -3.178711,-1.201172 -1.49414,-0.395508 -2.885742,-0.395508 -2.416992,0 -3.735351,0.9375 -1.303711,0.9375 -1.303711,2.666016 0,1.450195 0.864258,2.197265 0.878906,0.732422 3.310546,1.186524 l 1.78711,0.366211 q 3.310547,0.629882 4.87793,2.226562 1.582031,1.582031 1.582031,4.248047 0,3.178711 -2.138672,4.819336 -2.124024,1.640625 -6.240234,1.640625 -1.552735,0 -3.310547,-0.351563 -1.743164,-0.351562 -3.6181644,-1.040039 l 0,-3.046875 q 1.8017574,1.010743 3.5302734,1.523438 1.728516,0.512695 3.398438,0.512695 2.534179,0 3.911132,-0.996094 1.376953,-0.996093 1.376953,-2.841796 0,-1.611329 -0.996093,-2.519532 -0.981446,-0.908203 -3.237305,-1.362304 l -1.801758,-0.351563 q -3.310547,-0.65918 -4.790039,-2.06543 -1.479492,-1.40625 -1.479492,-3.911132 0,-2.900391 2.036133,-4.570313 2.050781,-1.669922 5.639648,-1.669922 1.538086,0 3.134766,0.278321 1.59668,0.27832 3.266601,0.83496 z"
       style="font-style:normal;font-variant:normal;font-weight:normal;font-stretch:normal;font-size:30px;font-family:Roboto;-inkscape-font-specification:Roboto;fill:#ffffff;fill-opacity:1;stroke:url(#linearGradient3358);stroke-width:1;stroke-miterlimit:4;stroke-dasharray:none;stroke-opacity:0"
       id="path3416"
       inkscape:connector-curvature="0" /><path
       d="m 29.575195,29.387207 2.973633,0 0,13.286133 q 0,3.515625 1.274414,5.068359 1.274414,1.538086 4.13086,1.538086 2.841796,0 4.11621,-1.538086 1.274415,-1.552734 1.274415,-5.068359 l 0,-13.286133 2.973632,0 0,13.652344 q 0,4.277344 -2.124023,6.459961 -2.109375,2.182617 -6.240234,2.182617 -4.145508,0 -6.269532,-2.182617 -2.109375,-2.182617 -2.109375,-6.459961 l 0,-13.652344 z"
       style="font-style:normal;font-variant:normal;font-weight:normal;font-stretch:normal;font-size:30px;font-family:Roboto;-inkscape-font-specification:Roboto;fill:#ffffff;fill-opacity:1;stroke:url(#linearGradient3360);stroke-width:1;stroke-miterlimit:4;stroke-dasharray:none;stroke-opacity:0"
       id="path3418"
       inkscape:connector-curvature="0" /><path
       d="m 64.995117,30.10498 0,2.885743 q -1.68457,-0.805664 -3.178711,-1.201172 -1.49414,-0.395508 -2.885742,-0.395508 -2.416992,0 -3.735352,0.9375 -1.30371,0.9375 -1.30371,2.666016 0,1.450195 0.864257,2.197265 0.878907,0.732422 3.310547,1.186524 l 1.78711,0.366211 q 3.310546,0.629882 4.877929,2.226562 1.582032,1.582031 1.582032,4.248047 0,3.178711 -2.138672,4.819336 -2.124024,1.640625 -6.240235,1.640625 -1.552734,0 -3.310547,-0.351563 -1.743164,-0.351562 -3.618164,-1.040039 l 0,-3.046875 q 1.801758,1.010743 3.530274,1.523438 1.728515,0.512695 3.398437,0.512695 2.53418,0 3.911133,-0.996094 1.376953,-0.996093 1.376953,-2.841796 0,-1.611329 -0.996094,-2.519532 -0.981445,-0.908203 -3.237304,-1.362304 L 57.1875,41.208496 q -3.310547,-0.65918 -4.790039,-2.06543 -1.479492,-1.40625 -1.479492,-3.911132 0,-2.900391 2.036133,-4.570313 2.050781,-1.669922 5.639648,-1.669922 1.538086,0 3.134766,0.278321 1.596679,0.27832 3.266601,0.83496 z"
       style="font-style:normal;font-variant:normal;font-weight:normal;font-stretch:normal;font-size:30px;font-family:Roboto;-inkscape-font-specification:Roboto;fill:#ffffff;fill-opacity:1;stroke:url(#linearGradient3362);stroke-width:1;stroke-miterlimit:4;stroke-dasharray:none;stroke-opacity:0"
       id="path3420"
       inkscape:connector-curvature="0" /><path
       d="m 70.986328,29.387207 13.828125,0 0,2.490234 -10.869141,0 0,6.47461 10.41504,0 0,2.490234 -10.41504,0 0,7.924805 11.132813,0 0,2.490234 -14.091797,0 0,-21.870117 z"
       style="font-style:normal;font-variant:normal;font-weight:normal;font-stretch:normal;font-size:30px;font-family:Roboto;-inkscape-font-specification:Roboto;fill:#ffffff;fill-opacity:1;stroke:url(#linearGradient3364);stroke-width:1;stroke-miterlimit:4;stroke-dasharray:none;stroke-opacity:0"
       id="path3422"
       inkscape:connector-curvature="0" /><path
       d="m 94.467773,41.135254 q -0.959472,0 -1.787109,0.344238 -0.827637,0.344238 -1.516113,1.032715 -0.688477,0.688477 -1.040039,1.530762 -0.351563,0.834961 -0.351563,1.787109 0,0.944824 0.351563,1.779785 0.351562,0.827637 1.040039,1.516114 0.688476,0.688476 1.516113,1.040039 0.827637,0.344238 1.787109,0.344238 0.966797,0 1.794434,-0.344238 0.834961,-0.351563 1.523438,-1.040039 0.681152,-0.681153 1.018066,-1.50879 0.344238,-0.827636 0.344238,-1.787109 0,-0.974121 -0.344238,-1.801758 -0.344238,-0.834961 -1.018066,-1.516113 -0.688477,-0.688477 -1.523438,-1.032715 -0.827637,-0.344238 -1.794434,-0.344238 z m 0,-0.754395 q 1.113282,0 2.072754,0.402832 0.966797,0.402832 1.765137,1.201172 0.79834,0.79834 1.193848,1.757813 0.395508,0.959472 0.395508,2.087402 0,1.113281 -0.395508,2.072754 -0.395508,0.952148 -1.193848,1.750488 -0.79834,0.79834 -1.765137,1.201172 -0.959472,0.402832 -2.072754,0.402832 -1.113281,0 -2.080078,-0.402832 -0.959472,-0.402832 -1.757812,-1.201172 -0.79834,-0.79834 -1.193848,-1.750488 -0.395508,-0.959473 -0.395508,-2.072754 0,-1.12793 0.395508,-2.087402 0.395508,-0.959473 1.193848,-1.757813 0.79834,-0.79834 1.757812,-1.201172 0.966797,-0.402832 2.080078,-0.402832 z m -0.197753,3.032227 -0.900879,0 0,2.021484 0.900879,0 q 0.805664,0 1.120605,-0.22705 0.322266,-0.227051 0.322266,-0.776368 0,-0.55664 -0.322266,-0.783691 -0.322266,-0.234375 -1.120605,-0.234375 z m 0.05127,-0.754395 q 1.289063,0 1.92627,0.439454 0.637207,0.432128 0.637207,1.318359 0,0.629883 -0.388184,1.040039 -0.380859,0.410156 -1.083984,0.534668 0.175781,0.05859 0.41748,0.344238 0.249024,0.278321 0.585938,0.812988 l 1.003418,1.633301 -1.259766,0 -0.944824,-1.530761 q -0.432129,-0.703125 -0.703125,-0.886231 -0.263672,-0.19043 -0.65918,-0.19043 l -0.483398,0 0,2.607422 -1.135254,0 0,-6.123047 2.087402,0 z"
       style="font-size:15px;fill:#ffffff;stroke:url(#linearGradient3366)"
       id="path3424"
       inkscape:connector-curvature="0" /><path
       d="m 130.86914,31.071777 0,3.120118 q -1.49414,-1.391602 -3.19336,-2.080079 -1.68457,-0.688476 -3.58887,-0.688476 -3.75,0 -5.74218,2.299805 -1.99219,2.285156 -1.99219,6.621093 0,4.321289 1.99219,6.621094 1.99218,2.285156 5.74218,2.285156 1.9043,0 3.58887,-0.688476 1.69922,-0.688477 3.19336,-2.080078 l 0,3.09082 q -1.55273,1.054687 -3.2959,1.582031 -1.72851,0.527344 -3.66211,0.527344 -4.96582,0 -7.82226,-3.032227 -2.85645,-3.046875 -2.85645,-8.305664 0,-5.273437 2.85645,-8.305664 2.85644,-3.046875 7.82226,-3.046875 1.96289,0 3.69141,0.527344 1.74316,0.512695 3.2666,1.552734 z"
       style="font-style:normal;font-variant:normal;font-weight:normal;font-stretch:normal;font-size:30px;font-family:Roboto;-inkscape-font-specification:Roboto;fill:#ffffff;fill-opacity:1;stroke:url(#linearGradient3368);stroke-width:1;stroke-miterlimit:4;stroke-dasharray:none;stroke-opacity:0"
       id="path3426"
       inkscape:connector-curvature="0" /><path
       d="m 142.80762,43.010254 q -3.2666,0 -4.52637,0.74707 -1.25977,0.747071 -1.25977,2.548828 0,1.435547 0.9375,2.285157 0.95215,0.834961 2.57813,0.834961 2.24121,0 3.58887,-1.582032 1.3623,-1.596679 1.3623,-4.233398 l 0,-0.600586 -2.68066,0 z m 5.37597,-1.113281 0,9.360351 -2.69531,0 0,-2.490234 q -0.92285,1.49414 -2.2998,2.211914 -1.37696,0.703125 -3.36914,0.703125 -2.51954,0 -4.01368,-1.40625 -1.47949,-1.420899 -1.47949,-3.793945 0,-2.768555 1.8457,-4.174805 1.86036,-1.40625 5.53711,-1.40625 l 3.7793,0 0,-0.263672 q 0,-1.860352 -1.23047,-2.871094 -1.21582,-1.02539 -3.42773,-1.02539 -1.40625,0 -2.73926,0.336914 -1.33301,0.336914 -2.56348,1.010742 l 0,-2.490234 q 1.4795,-0.57129 2.8711,-0.84961 1.3916,-0.292969 2.70996,-0.292969 3.55957,0 5.31738,1.845704 1.75781,1.845703 1.75781,5.595703 z"
       style="font-style:normal;font-variant:normal;font-weight:normal;font-stretch:normal;font-size:30px;font-family:Roboto;-inkscape-font-specification:Roboto;fill:#ffffff;fill-opacity:1;stroke:url(#linearGradient3370);stroke-width:1;stroke-miterlimit:4;stroke-dasharray:none;stroke-opacity:0"
       id="path3428"
       inkscape:connector-curvature="0" /><path
       d="m 161.26465,43.010254 q -3.2666,0 -4.52637,0.74707 -1.25976,0.747071 -1.25976,2.548828 0,1.435547 0.9375,2.285157 0.95214,0.834961 2.57812,0.834961 2.24121,0 3.58887,-1.582032 1.3623,-1.596679 1.3623,-4.233398 l 0,-0.600586 -2.68066,0 z m 5.37597,-1.113281 0,9.360351 -2.69531,0 0,-2.490234 q -0.92285,1.49414 -2.2998,2.211914 -1.37696,0.703125 -3.36914,0.703125 -2.51953,0 -4.01367,-1.40625 -1.4795,-1.420899 -1.4795,-3.793945 0,-2.768555 1.84571,-4.174805 1.86035,-1.40625 5.53711,-1.40625 l 3.77929,0 0,-0.263672 q 0,-1.860352 -1.23047,-2.871094 -1.21582,-1.02539 -3.42773,-1.02539 -1.40625,0 -2.73926,0.336914 -1.33301,0.336914 -2.56348,1.010742 l 0,-2.490234 q 1.4795,-0.57129 2.8711,-0.84961 1.3916,-0.292969 2.70996,-0.292969 3.55957,0 5.31738,1.845704 1.75781,1.845703 1.75781,5.595703 z"
       style="font-style:normal;font-variant:normal;font-weight:normal;font-stretch:normal;font-size:30px;font-family:Roboto;-inkscape-font-specification:Roboto;fill:#ffffff;fill-opacity:1;stroke:url(#linearGradient3372);stroke-width:1;stroke-miterlimit:4;stroke-dasharray:none;stroke-opacity:0"
       id="path3430"
       inkscape:connector-curvature="0" /><path
       d="m 185.49316,30.10498 0,2.885743 q -1.68457,-0.805664 -3.17871,-1.201172 -1.49414,-0.395508 -2.88574,-0.395508 -2.41699,0 -3.73535,0.9375 -1.30371,0.9375 -1.30371,2.666016 0,1.450195 0.86426,2.197265 0.8789,0.732422 3.31054,1.186524 l 1.78711,0.366211 q 3.31055,0.629882 4.87793,2.226562 1.58203,1.582031 1.58203,4.248047 0,3.178711 -2.13867,4.819336 -2.12402,1.640625 -6.24023,1.640625 -1.55274,0 -3.31055,-0.351563 -1.74316,-0.351562 -3.61816,-1.040039 l 0,-3.046875 q 1.80175,1.010743 3.53027,1.523438 1.72852,0.512695 3.39844,0.512695 2.53418,0 3.91113,-0.996094 1.37695,-0.996093 1.37695,-2.841796 0,-1.611329 -0.99609,-2.519532 -0.98145,-0.908203 -3.23731,-1.362304 l -1.80175,-0.351563 q -3.31055,-0.65918 -4.79004,-2.06543 -1.47949,-1.40625 -1.47949,-3.911132 0,-2.900391 2.03613,-4.570313 2.05078,-1.669922 5.63965,-1.669922 1.53808,0 3.13476,0.278321 1.59668,0.27832 3.2666,0.83496 z"
       style="font-style:normal;font-variant:normal;font-weight:normal;font-stretch:normal;font-size:30px;font-family:Roboto;-inkscape-font-specification:Roboto;fill:#ffffff;fill-opacity:1;stroke:url(#linearGradient3374);stroke-width:1;stroke-miterlimit:4;stroke-dasharray:none;stroke-opacity:0"
       id="path3432"
       inkscape:connector-curvature="0" /><path
       d="m 203.99414,31.818848 0,8.217773 3.7207,0 q 2.06543,0 3.19336,-1.069336 1.12793,-1.069336 1.12793,-3.046875 0,-1.96289 -1.12793,-3.032226 -1.12793,-1.069336 -3.19336,-1.069336 l -3.7207,0 z m -2.95898,-2.431641 6.67968,0 q 3.67676,0 5.55176,1.669922 1.88965,1.655273 1.88965,4.863281 0,3.237305 -1.88965,4.892578 -1.875,1.655274 -5.55176,1.655274 l -3.7207,0 0,8.789062 -2.95898,0 0,-21.870117 z"
       style="font-style:normal;font-variant:normal;font-weight:normal;font-stretch:normal;font-size:30px;font-family:Roboto;-inkscape-font-specification:Roboto;fill:#ffffff;fill-opacity:1;stroke:url(#linearGradient3376);stroke-width:1;stroke-miterlimit:4;stroke-dasharray:none;stroke-opacity:0"
       id="path3434"
       inkscape:connector-curvature="0" /><path
       d="m 219.02344,28.464355 2.69531,0 0,22.792969 -2.69531,0 0,-22.792969 z"
       style="font-style:normal;font-variant:normal;font-weight:normal;font-stretch:normal;font-size:30px;font-family:Roboto;-inkscape-font-specification:Roboto;fill:#ffffff;fill-opacity:1;stroke:url(#linearGradient3378);stroke-width:1;stroke-miterlimit:4;stroke-dasharray:none;stroke-opacity:0"
       id="path3436"
       inkscape:connector-curvature="0" /><path
       d="m 234.7998,43.010254 q -3.2666,0 -4.52636,0.74707 -1.25977,0.747071 -1.25977,2.548828 0,1.435547 0.9375,2.285157 0.95215,0.834961 2.57813,0.834961 2.24121,0 3.58886,-1.582032 1.36231,-1.596679 1.36231,-4.233398 l 0,-0.600586 -2.68067,0 z m 5.37598,-1.113281 0,9.360351 -2.69531,0 0,-2.490234 q -0.92285,1.49414 -2.29981,2.211914 -1.37695,0.703125 -3.36914,0.703125 -2.51953,0 -4.01367,-1.40625 -1.47949,-1.420899 -1.47949,-3.793945 0,-2.768555 1.8457,-4.174805 1.86035,-1.40625 5.53711,-1.40625 l 3.7793,0 0,-0.263672 q 0,-1.860352 -1.23047,-2.871094 -1.21582,-1.02539 -3.42773,-1.02539 -1.40625,0 -2.73926,0.336914 -1.33301,0.336914 -2.56348,1.010742 l 0,-2.490234 q 1.47949,-0.57129 2.87109,-0.84961 1.39161,-0.292969 2.70997,-0.292969 3.55957,0 5.31738,1.845704 1.75781,1.845703 1.75781,5.595703 z"
       style="font-style:normal;font-variant:normal;font-weight:normal;font-stretch:normal;font-size:30px;font-family:Roboto;-inkscape-font-specification:Roboto;fill:#ffffff;fill-opacity:1;stroke:url(#linearGradient3380);stroke-width:1;stroke-miterlimit:4;stroke-dasharray:none;stroke-opacity:0"
       id="path3438"
       inkscape:connector-curvature="0" /><path
       d="m 248.4668,30.192871 0,4.658203 5.55175,0 0,2.094727 -5.55175,0 0,8.90625 q 0,2.006836 0.54199,2.578125 0.55664,0.571289 2.24121,0.571289 l 2.76855,0 0,2.255859 -2.76855,0 q -3.12012,0 -4.30664,-1.157226 -1.18652,-1.171875 -1.18652,-4.248047 l 0,-8.90625 -1.97754,0 0,-2.094727 1.97754,0 0,-4.658203 2.70996,0 z"
       style="font-style:normal;font-variant:normal;font-weight:normal;font-stretch:normal;font-size:30px;font-family:Roboto;-inkscape-font-specification:Roboto;fill:#ffffff;fill-opacity:1;stroke:url(#linearGradient3382);stroke-width:1;stroke-miterlimit:4;stroke-dasharray:none;stroke-opacity:0"
       id="path3440"
       inkscape:connector-curvature="0" /><path
       d="m 265.88379,28.464355 0,2.241211 -2.57813,0 q -1.45019,0 -2.02148,0.585938 -0.55664,0.585937 -0.55664,2.109375 l 0,1.450195 4.43848,0 0,2.094727 -4.43848,0 0,14.311523 -2.70996,0 0,-14.311523 -2.57813,0 0,-2.094727 2.57813,0 0,-1.142578 q 0,-2.739258 1.27441,-3.984375 1.27442,-1.259766 4.04297,-1.259766 l 2.54883,0 z"
       style="font-style:normal;font-variant:normal;font-weight:normal;font-stretch:normal;font-size:30px;font-family:Roboto;-inkscape-font-specification:Roboto;fill:#ffffff;fill-opacity:1;stroke:url(#linearGradient3384);stroke-width:1;stroke-miterlimit:4;stroke-dasharray:none;stroke-opacity:0"
       id="path3442"
       inkscape:connector-curvature="0" /><path
       d="m 274.54102,36.740723 q -2.16797,0 -3.42774,1.699218 -1.25976,1.684571 -1.25976,4.628907 0,2.944336 1.24511,4.643554 1.25977,1.684571 3.44239,1.684571 2.15332,0 3.41308,-1.699219 1.25977,-1.699219 1.25977,-4.628906 0,-2.915039 -1.25977,-4.614258 -1.25976,-1.713867 -3.41308,-1.713867 z m 0,-2.285157 q 3.51562,0 5.52246,2.285157 2.00683,2.285156 2.00683,6.328125 0,4.02832 -2.00683,6.328125 -2.00684,2.285156 -5.52246,2.285156 -3.53028,0 -5.53711,-2.285156 -1.99219,-2.299805 -1.99219,-6.328125 0,-4.042969 1.99219,-6.328125 2.00683,-2.285157 5.53711,-2.285157 z"
       style="font-style:normal;font-variant:normal;font-weight:normal;font-stretch:normal;font-size:30px;font-family:Roboto;-inkscape-font-specification:Roboto;fill:#ffffff;fill-opacity:1;stroke:url(#linearGradient3386);stroke-width:1;stroke-miterlimit:4;stroke-dasharray:none;stroke-opacity:0"
       id="path3444"
       inkscape:connector-curvature="0" /><path
       d="m 296.03027,37.370605 q -0.4541,-0.263671 -0.99609,-0.380859 -0.52734,-0.131836 -1.17188,-0.131836 -2.28515,0 -3.51562,1.494141 -1.21582,1.479492 -1.21582,4.262695 l 0,8.642578 -2.70996,0 0,-16.40625 2.70996,0 0,2.548828 q 0.84961,-1.49414 2.21191,-2.211914 1.36231,-0.732422 3.31055,-0.732422 0.27832,0 0.61523,0.04395 0.33692,0.0293 0.74707,0.102539 l 0.0146,2.768554 z"
       style="font-style:normal;font-variant:normal;font-weight:normal;font-stretch:normal;font-size:30px;font-family:Roboto;-inkscape-font-specification:Roboto;fill:#ffffff;fill-opacity:1;stroke:url(#linearGradient3388);stroke-width:1;stroke-miterlimit:4;stroke-dasharray:none;stroke-opacity:0"
       id="path3446"
       inkscape:connector-curvature="0" /><path
       d="m 311.16211,38.000488 q 1.01074,-1.816406 2.41699,-2.680664 1.40625,-0.864258 3.31055,-0.864258 2.56347,0 3.95508,1.801758 1.3916,1.78711 1.3916,5.097656 l 0,9.902344 -2.70996,0 0,-9.814453 q 0,-2.358398 -0.83496,-3.500976 -0.83496,-1.142579 -2.54883,-1.142579 -2.09473,0 -3.31055,1.391602 -1.21582,1.391602 -1.21582,3.793945 l 0,9.272461 -2.70996,0 0,-9.814453 q 0,-2.373047 -0.83496,-3.500976 -0.83496,-1.142579 -2.57813,-1.142579 -2.06543,0 -3.28125,1.40625 -1.21582,1.391602 -1.21582,3.779297 l 0,9.272461 -2.70996,0 0,-16.40625 2.70996,0 0,2.548828 q 0.92286,-1.508789 2.21192,-2.226562 1.28906,-0.717774 3.06152,-0.717774 1.78711,0 3.03223,0.908204 1.25976,0.908203 1.86035,2.636718 z"
       style="font-style:normal;font-variant:normal;font-weight:normal;font-stretch:normal;font-size:30px;font-family:Roboto;-inkscape-font-specification:Roboto;fill:#ffffff;fill-opacity:1;stroke:url(#linearGradient3390);stroke-width:1;stroke-miterlimit:4;stroke-dasharray:none;stroke-opacity:0"
       id="path3448"
       inkscape:connector-curvature="0" /></g><text
     xml:space="preserve"
     style="font-style:normal;font-weight:normal;font-size:40px;line-height:125%;font-family:sans-serif;letter-spacing:0px;word-spacing:0px;fill:#000000;fill-opacity:1;stroke:none;stroke-width:1px;stroke-linecap:butt;stroke-linejoin:miter;stroke-opacity:1"
     x="181.05624"
     y="69.41787"
     id="text4287"
     sodipodi:linespacing="125%"><tspan
       sodipodi:role="line"
       id="tspan4289"
       x="181.05624"
       y="69.41787" /></text>
<text
     xml:space="preserve"
     style="font-style:normal;font-weight:normal;font-size:40px;line-height:125%;font-family:sans-serif;letter-spacing:0px;word-spacing:0px;fill:#000000;fill-opacity:1;stroke:none;stroke-width:1px;stroke-linecap:butt;stroke-linejoin:miter;stroke-opacity:1"
     x="2.7289772"
     y="67.381508"
     id="text4291"
     sodipodi:linespacing="125%"><tspan
       sodipodi:role="line"
       id="tspan4293"
       x="2.7289772"
       y="67.381508" /></text>
</svg>